# xmcd
#
# Track frame offsets: 
#        182
#        11910
#        26817
#        40030
#        50210
#        64455
#        83937
#        96457
#        114792
#        128855
#        143717
#        159625
#        183367
#        203065
#        214220
#        230007
#        243875
#        256810
#        274070
#        285195
#        299410
#
# Disc length: 4253 seconds
#
# Revision: 8
# Processed by: cddbd v1.5.2PL0 Copyright (c) Steve Scherf et al.
# Submitted via: ExactAudioCopyFreeDBPlugin 1.0
#
DISCID=3b109b15
DTITLE=Various Artist - The Lady Sings The Blues
DYEAR=1994
DGENRE=Blues
TTITLE0=Erma Franklin - (Take A Little) Piece Of My Heart
TTITLE1=Peggy Lee - Fever
TTITLE2=Julie London - Cry Me A River
TTITLE3=Dinah Washington - Call Me Irresponsible
TTITLE4=The Commitments (Vocal By Maria Doyle) - I Never Loved A Man
TTITLE5=Gladys Knight and The Pips - Help Me Make It Through The Night
TTITLE6=Aretha Franklin - Today I Sing The Blues
TTITLE7=Ruby Turner - I'd Rather Go Blind
TTITLE8=Ella Fitzgerald - Basin Street Blues
TTITLE9=Sarah Vaughn - Black Coffee
TTITLE10=Dorothy Moore - Misty Blue
TTITLE11=Tina Turner - Undercover Agent For The Blues
TTITLE12=Annie Lennox - Cold
TTITLE13=Sinead O'Connor - Why Don't You Do Right
TTITLE14=Joan Armatrading - Show Some Emotion
TTITLE15=Etta James - I Just Want To Make Love To You
TTITLE16=Dionne Warwick - Walk On By
TTITLE17=Nina Simone - Mr. Bojangles
TTITLE18=Timi Yuro - Hurt
TTITLE19=Billie Holiday - God Bless The Child
TTITLE20=Big Brother and The Holding Company - Turtle Blues
EXTD=
EXTT0=Erma Franklin
EXTT1=Peggy Lee
EXTT2=Julie London
EXTT3=Dinah Washington
EXTT4=Commitments
EXTT5=Gladys Night and the Pips
EXTT6=Aretha Franklin
EXTT7=Ruby Turner
EXTT8=Ella Fitzgerald
EXTT9=Sarah Vaughn
EXTT10=Dorothy Moore
EXTT11=Tina Turner
EXTT12=Annie Lennox
EXTT13=Sinead O'Connor
EXTT14=Joan Armatrading
EXTT15=Etta James
EXTT16=Dionne Warwick
EXTT17=Nina Simone
EXTT18=Timi Yuro
EXTT19=Billie Holiday
EXTT20=Big Brother and The Holding Company
PLAYORDER=
